# xmcd
#
# Track frame offsets: 
#        150
#        12477
#        26722
#        45835
#
# Disc length: 916 seconds
#
# Revision: 4
# Processed by: cddbd v1.5.1PL0 Copyright (c) Steve Scherf et al.
# Submitted via: ExactAudioCopy v0.90b4
#
DISCID=25039204
DTITLE=4PM - Sukiyaki (Single)
DYEAR=1994
DGENRE=R&B
TTITLE0=Sukiyaki (Lover's Groove Radio Mix)
TTITLE1=Sukiyaki (Flowin' At Cha Drum Mix)
TTITLE2=For What More (Radio Mix)
TTITLE3=For What More (Original Version)
EXTD=
EXTT0=
EXTT1=
EXTT2=
EXTT3=
PLAYORDER=
